<?xml version="1.0" encoding="UTF-8"?>
<svg width="110px" height="110px" viewBox="0 0 110 110" version="1.1" xmlns="http://www.w3.org/2000/svg" xmlns:xlink="http://www.w3.org/1999/xlink">
    <!-- Generator: Sketch 52.2 (67145) - http://www.bohemiancoding.com/sketch -->
    <title>Group 10</title>
    <desc>Created with Sketch.</desc>
    <defs>
        <polygon id="path-1" points="0 0 70 0 70 70 0 70"></polygon>
    </defs>
    <g id="✅Templates" stroke="none" stroke-width="1" fill="none" fill-rule="evenodd">
        <g id="Homepage-With-Podcast" transform="translate(-143.000000, -1116.000000)">
            <g id="Group-10" transform="translate(143.000000, 1116.000000)">
                <circle id="Oval" fill="#006BFF" fill-rule="nonzero" cx="55" cy="55" r="55"></circle>
                <g id="Group-3" transform="translate(20.000000, 20.000000)">
                    <mask id="mask-2" fill="white">
                        <use xlink:href="#path-1"></use>
                    </mask>
                    <g id="Clip-2"></g>
                    <path d="M50.4680462,20.1132193 L52.4570664,22.1881693 L62.0403998,12.6052507 L60.1048705,10.6147628 C59.8676802,10.3705268 59.6276745,10.1305139 59.3827421,9.89331644 L57.3937218,7.96124803 L47.8075732,17.5448704 L49.888795,19.5346546 C50.0858671,19.7239902 50.2787162,19.9168451 50.4680462,20.1132193 Z M34.5784065,56.4635556 L31.7138232,56.4142861 L31.7138232,69.957769 L34.9985923,70 L38.2840653,69.957769 L38.2840653,56.4128784 L35.4201858,56.4635556 C35.1442849,56.4677787 34.8627534,56.4677787 34.5784065,56.4635556 Z M31.7138232,0.0168924014 L31.7138232,13.5864177 L34.9985923,13.5308136 L38.2861768,13.5864177 L38.2861768,0.0168924014 L34.9985923,0 L31.7138232,0.0168924014 Z M19.5326577,20.1132193 C19.7240991,19.9133259 19.9211712,19.7176556 20.1196509,19.5262084 L22.1825732,17.5357204 L12.6076858,7.96054418 L10.6172579,9.89261259 C10.3730293,10.1305139 10.1330236,10.3705268 9.8951295,10.6140589 L7.95960023,12.6045469 L17.5429336,22.1874654 L19.5326577,20.1132193 Z M50.4764921,49.8776306 C50.2857545,50.0754125 50.0914977,50.2724905 49.8923142,50.4618262 L47.8040541,52.4523142 L57.393018,62.0394558 L59.3820383,60.1080913 C59.6276745,59.8701899 59.8669764,59.6294732 60.1041667,59.3845334 L62.0403998,57.3947493 L52.4662162,47.8223885 L50.4764921,49.8776306 Z M69.9514358,31.714076 L59.2785755,31.714076 L56.4076577,31.7598262 L56.4646678,34.6315345 C56.4667793,34.7540044 56.4695946,34.8764743 56.4695946,35.0003519 C56.4695946,35.1242295 56.4667793,35.2474033 56.4646678,35.4156235 L56.4069538,38.285924 L69.9514358,38.285924 L70,35.0003519 L69.9514358,31.714076 Z M13.5311092,35.0003519 L13.5874155,31.714076 L0.049268018,31.714076 L0,35.0003519 L0.0485641892,38.285924 L13.5867117,38.285924 L13.5311092,35.0003519 Z M20.1105011,50.4632339 L22.191723,52.4523142 L12.6083896,62.0408635 L10.6172579,60.1080913 C10.3730293,59.8701899 10.1330236,59.6294732 9.8951295,59.3845334 L7.95960023,57.3947493 L17.5344876,47.8223885 L19.5249155,49.8776306 C19.7156532,50.0754125 19.9113176,50.2731944 20.1105011,50.4632339 Z" id="Fill-1" fill="#FFFFFF" mask="url(#mask-2)"></path>
                </g>
            </g>
        </g>
    </g>
</svg>